<svg xmlns="http://www.w3.org/2000/svg" xmlns:xlink="http://www.w3.org/1999/xlink" width="120" height="120" viewBox="0 0 120 120">
  <defs>
    <clipPath id="clip-path">
      <rect id="Rectangle_118" data-name="Rectangle 118" width="120" height="120" fill="none"/>
    </clipPath>
  </defs>
  <g id="loader-outer" opacity="1">
    <g id="Group_36" data-name="Group 36" clip-path="url(#clip-path)">
      <g id="Group_35" data-name="Group 35">
        <g id="Group_34" data-name="Group 34" clip-path="url(#clip-path)">
          <path id="Path_10" data-name="Path 10" d="M60,120A60.068,60.068,0,0,1,0,60a6,6,0,0,1,12,0,48.055,48.055,0,0,0,48,48,6,6,0,0,1,0,12" fill="#1d1d1b"/>
          <path id="Path_11" data-name="Path 11" d="M114,66a6,6,0,0,1-6-6A48.055,48.055,0,0,0,60,12,6,6,0,0,1,60,0a60.068,60.068,0,0,1,60,60,6,6,0,0,1-6,6" fill="#1d1d1b"/>
          <g id="Group_33" data-name="Group 33" opacity="0">
            <g id="Group_32" data-name="Group 32">
              <g id="Group_31" data-name="Group 31" clip-path="url(#clip-path)">
                <rect id="Rectangle_115" data-name="Rectangle 115" width="120" height="120" fill="#1d1d1b"/>
              </g>
            </g>
          </g>
        </g>
      </g>
    </g>
  </g>
</svg>
